<svg width="240" height="57" viewBox="0 0 240 57" xmlns="http://www.w3.org/2000/svg"><title>logo</title><g fill="#FFF" fill-rule="evenodd"><path d="M82.506 25.237H72.05v3.054h5.215l-5.61 9.218v.422h10.85v-3.186h-5.53l5.53-9.085v-.423zm16.073-.315c-3.37 0-6.584 2.08-6.662 6.503 0 4.293 3.002 6.9 7.268 6.82 1.685 0 3.422-.42 4.924-1.132l-.422-2.686c-.763.343-1.895.632-3.028.764-.552.08-1.16.054-1.685.027-1.764-.13-3.24-.895-3.37-2.87h8.61c.974-4.32-1-7.425-5.636-7.425zm0 2.817c1.37 0 2.712.58 2.633 2.238H95.63c.29-1.475 1.554-2.24 2.95-2.24zm28.688 10.19v-7.347c0-3.265-1.37-5.636-5.003-5.636-1.58 0-2.95.527-3.766 1.66v-7.9h-3.714V37.93h3.713v-7.268c0-1.764 1.237-2.818 2.712-2.79 1.37 0 2.422.92 2.343 2.71v7.348h3.713zm10.597-16.353c0 1.448 1.132 2.16 2.24 2.133 1.052-.026 2.08-.738 2.08-2.133 0-1.37-1.054-2.08-2.108-2.106-1.105-.026-2.212.658-2.212 2.107zm.317 16.353h3.686V25.395h-3.686V37.93zM157.784 21.313h-2.95l-.394 3.924h-2.66v2.528l2.397.237v5.02c0 5.224 3.87 5.934 8.242 4.724l-.344-2.792c-2.105.764-4.292.632-4.292-2.01v-4.942h4.135v-2.765h-4.136v-3.924zm27.32 10.218c0-4.476-3.397-6.688-6.795-6.66-3.345.025-6.663 2.264-6.663 6.66 0 4.45 3.397 6.663 6.768 6.663 3.344 0 6.688-2.212 6.688-6.662zm-9.797 0c0-2.29 1.554-3.422 3.108-3.422 1.553 0 3.028 1.158 3.028 3.423 0 2.318-1.553 3.477-3.107 3.45-1.527 0-3.03-1.158-3.03-3.45zm40.59 6.4v-7.347c.08-3.08-.762-5.636-4.37-5.636-1.765 0-3.634.764-4.4 2.317-.604-1.553-1.657-2.317-3.87-2.317-1.58 0-3.396.58-4.08 2.03 0-2.53-2.924-2.24-4.583-1.766v2.24c1.16 0 1.212.42 1.212 1.658v8.822h3.66v-7.242c0-1.712 1.16-2.765 2.502-2.79 1.343-.027 2.21 1 2.185 2.712v7.32h3.634v-7.32c.026-1.686 1.053-2.687 2.344-2.713 1.265-.026 2.134 1 2.055 2.686v7.347h3.713zm23.606-6.4c0-4.476-3.396-6.688-6.793-6.66-3.344.025-6.663 2.264-6.663 6.66 0 4.45 3.397 6.663 6.768 6.663 3.344 0 6.688-2.212 6.688-6.662zm-9.795 0c0-2.29 1.553-3.422 3.107-3.422 1.553 0 3.03 1.158 3.03 3.423 0 2.318-1.555 3.477-3.11 3.45-1.526 0-3.027-1.158-3.027-3.45zM15.735 18.228c1.248 0 2.333.69 2.898 1.708l15.21-4.076v-.057c0-1.653 1.338-2.992 2.99-2.992 1.653 0 2.992 1.34 2.992 2.993 0 1.652-1.34 2.99-2.99 2.99-.445 0-.867-.095-1.246-.268L19.68 34.433c.105.225.176.47.206.726l18.2 4.345c.533-.993 1.58-1.67 2.786-1.67 1.745 0 3.158 1.415 3.158 3.158 0 1.745-1.413 3.16-3.158 3.16-1.72 0-3.122-1.38-3.157-3.094l-18.2-4.346c-.42.635-1.14 1.055-1.96 1.055-1.293 0-2.343-1.05-2.343-2.345 0-1.295 1.05-2.344 2.344-2.344.354 0 .69.08.99.22L34.36 17.484l-.058-.09-15.255 4.088v.06c0 .703-.22 1.355-.592 1.892-.6.857-1.594 1.42-2.72 1.42-1.83 0-3.312-1.484-3.312-3.313 0-1.83 1.483-3.314 3.312-3.314"/><path d="M28.227 56.425C12.817 56.425.282 43.89.282 28.48.282 13.074 12.818.537 28.227.537 43.635.536 56.17 13.073 56.17 28.48c0 15.41-12.535 27.945-27.943 27.945zm0-53.765c-14.238 0-25.82 11.584-25.82 25.82 0 14.24 11.582 25.822 25.82 25.822 14.237 0 25.82-11.583 25.82-25.82 0-14.238-11.583-25.822-25.82-25.822z"/></g></svg>